<svg width="326" height="255" viewBox="0 0 326 255" fill="none" xmlns="http://www.w3.org/2000/svg">
<rect width="325.67" height="255" fill="#FFFEFE"/>
<path d="M59.1692 182.129C58.883 182.129 58.6277 182.105 58.4035 182.057C58.1793 182.014 58.0242 181.971 57.9384 181.928L58.3677 180.44C58.778 180.545 59.1406 180.583 59.4554 180.555C59.7703 180.526 60.0494 180.385 60.2927 180.132C60.5408 179.884 60.7674 179.481 60.9725 178.923L61.2874 178.064L57.2227 167.015H59.0547L62.0889 175.774H62.2034L65.2375 167.015H67.0695L62.4037 179.61C62.1938 180.178 61.9338 180.648 61.6237 181.02C61.3136 181.397 60.9534 181.676 60.5432 181.857C60.1377 182.038 59.6797 182.129 59.1692 182.129ZM73.3704 178.236C72.3781 178.236 71.5075 178 70.7584 177.528C70.0142 177.055 69.4322 176.394 69.0124 175.545C68.5973 174.696 68.3898 173.704 68.3898 172.568C68.3898 171.423 68.5973 170.424 69.0124 169.57C69.4322 168.716 70.0142 168.053 70.7584 167.581C71.5075 167.108 72.3781 166.872 73.3704 166.872C74.3627 166.872 75.231 167.108 75.9752 167.581C76.7242 168.053 77.3063 168.716 77.7213 169.57C78.1411 170.424 78.351 171.423 78.351 172.568C78.351 173.704 78.1411 174.696 77.7213 175.545C77.3063 176.394 76.7242 177.055 75.9752 177.528C75.231 178 74.3627 178.236 73.3704 178.236ZM73.3704 176.719C74.1242 176.719 74.7444 176.526 75.231 176.139C75.7176 175.753 76.0778 175.245 76.3116 174.615C76.5453 173.985 76.6622 173.303 76.6622 172.568C76.6622 171.834 76.5453 171.149 76.3116 170.515C76.0778 169.88 75.7176 169.367 75.231 168.976C74.7444 168.585 74.1242 168.389 73.3704 168.389C72.6166 168.389 71.9964 168.585 71.5098 168.976C71.0232 169.367 70.663 169.88 70.4293 170.515C70.1955 171.149 70.0786 171.834 70.0786 172.568C70.0786 173.303 70.1955 173.985 70.4293 174.615C70.663 175.245 71.0232 175.753 71.5098 176.139C71.9964 176.526 72.6166 176.719 73.3704 176.719ZM87.8561 173.513V167.015H89.5449V178.007H87.8561V176.146H87.7416C87.484 176.705 87.0832 177.179 86.5394 177.57C85.9955 177.957 85.3085 178.15 84.4784 178.15C83.7914 178.15 83.1808 178 82.6465 177.699C82.1121 177.394 81.6923 176.936 81.387 176.325C81.0817 175.71 80.929 174.935 80.929 174V167.015H82.6178V173.885C82.6178 174.687 82.8421 175.326 83.2905 175.803C83.7437 176.28 84.321 176.518 85.0223 176.518C85.4421 176.518 85.8691 176.411 86.3032 176.196C86.7421 175.982 87.1095 175.653 87.4052 175.209C87.7058 174.765 87.8561 174.2 87.8561 173.513ZM92.6381 178.007V167.015H94.2697V168.675H94.3842C94.5846 168.132 94.9471 167.69 95.4719 167.352C95.9967 167.013 96.5883 166.843 97.2466 166.843C97.3707 166.843 97.5257 166.846 97.7118 166.851C97.8978 166.855 98.0386 166.863 98.134 166.872V168.59C98.0767 168.575 97.9455 168.554 97.7404 168.525C97.54 168.492 97.3277 168.475 97.1035 168.475C96.5692 168.475 96.0921 168.587 95.6723 168.811C95.2572 169.031 94.9281 169.336 94.6848 169.727C94.4462 170.114 94.327 170.555 94.327 171.051V178.007H92.6381ZM110.269 178.236C109.238 178.236 108.351 177.993 107.607 177.506C106.863 177.019 106.29 176.349 105.889 175.495C105.489 174.641 105.288 173.666 105.288 172.568C105.288 171.452 105.493 170.467 105.904 169.613C106.319 168.754 106.896 168.084 107.635 167.602C108.38 167.115 109.248 166.872 110.24 166.872C111.013 166.872 111.71 167.015 112.33 167.301C112.95 167.588 113.458 167.988 113.854 168.504C114.25 169.019 114.496 169.62 114.591 170.307H112.902C112.774 169.806 112.487 169.362 112.044 168.976C111.605 168.585 111.013 168.389 110.269 168.389C109.611 168.389 109.033 168.561 108.537 168.904C108.046 169.243 107.662 169.723 107.385 170.343C107.113 170.958 106.977 171.681 106.977 172.511C106.977 173.36 107.111 174.1 107.378 174.729C107.65 175.359 108.031 175.848 108.523 176.196C109.019 176.545 109.601 176.719 110.269 176.719C110.708 176.719 111.106 176.643 111.464 176.49C111.822 176.337 112.125 176.118 112.373 175.832C112.621 175.545 112.797 175.202 112.902 174.801H114.591C114.496 175.45 114.26 176.034 113.883 176.554C113.511 177.07 113.017 177.48 112.401 177.785C111.791 178.086 111.08 178.236 110.269 178.236ZM120.295 178.265C119.598 178.265 118.966 178.133 118.398 177.871C117.83 177.604 117.38 177.22 117.046 176.719C116.712 176.213 116.545 175.603 116.545 174.887C116.545 174.257 116.669 173.747 116.917 173.356C117.165 172.96 117.497 172.649 117.912 172.425C118.327 172.201 118.785 172.034 119.286 171.924C119.791 171.81 120.299 171.719 120.81 171.652C121.478 171.566 122.019 171.502 122.434 171.459C122.854 171.411 123.159 171.333 123.35 171.223C123.546 171.113 123.644 170.922 123.644 170.651V170.593C123.644 169.887 123.45 169.339 123.064 168.947C122.682 168.556 122.103 168.361 121.325 168.361C120.519 168.361 119.887 168.537 119.429 168.89C118.971 169.243 118.649 169.62 118.463 170.021L116.86 169.448C117.146 168.78 117.528 168.26 118.005 167.888C118.486 167.511 119.011 167.249 119.579 167.101C120.151 166.948 120.714 166.872 121.268 166.872C121.621 166.872 122.026 166.915 122.484 167.001C122.947 167.082 123.393 167.251 123.822 167.509C124.257 167.767 124.617 168.155 124.903 168.675C125.189 169.195 125.332 169.892 125.332 170.765V178.007H123.644V176.518H123.558C123.443 176.757 123.252 177.012 122.985 177.284C122.718 177.556 122.363 177.788 121.919 177.978C121.475 178.169 120.934 178.265 120.295 178.265ZM120.552 176.747C121.22 176.747 121.783 176.616 122.241 176.354C122.704 176.092 123.052 175.753 123.286 175.338C123.524 174.923 123.644 174.486 123.644 174.028V172.482C123.572 172.568 123.415 172.647 123.171 172.719C122.933 172.785 122.656 172.845 122.341 172.898C122.031 172.945 121.728 172.988 121.432 173.026C121.141 173.06 120.905 173.088 120.724 173.112C120.285 173.169 119.875 173.262 119.493 173.391C119.116 173.515 118.811 173.704 118.577 173.957C118.348 174.205 118.234 174.543 118.234 174.973C118.234 175.56 118.451 176.003 118.885 176.304C119.324 176.6 119.879 176.747 120.552 176.747ZM128.415 178.007V167.015H130.046V168.675H130.161C130.361 168.132 130.724 167.69 131.249 167.352C131.773 167.013 132.365 166.843 133.023 166.843C133.147 166.843 133.302 166.846 133.489 166.851C133.675 166.855 133.815 166.863 133.911 166.872V168.59C133.853 168.575 133.722 168.554 133.517 168.525C133.317 168.492 133.104 168.475 132.88 168.475C132.346 168.475 131.869 168.587 131.449 168.811C131.034 169.031 130.705 169.336 130.462 169.727C130.223 170.114 130.104 170.555 130.104 171.051V178.007H128.415ZM141.382 167.015V168.446H135.685V167.015H141.382ZM137.346 164.382H139.034V174.858C139.034 175.335 139.104 175.693 139.242 175.932C139.385 176.165 139.566 176.323 139.786 176.404C140.01 176.48 140.246 176.518 140.494 176.518C140.68 176.518 140.833 176.509 140.952 176.49C141.072 176.466 141.167 176.447 141.239 176.433L141.582 177.95C141.468 177.993 141.308 178.036 141.103 178.079C140.897 178.126 140.637 178.15 140.323 178.15C139.846 178.15 139.378 178.048 138.92 177.842C138.467 177.637 138.09 177.325 137.789 176.905C137.494 176.485 137.346 175.956 137.346 175.316V164.382ZM149.59 178.007V167.015H151.279V178.007H149.59ZM150.448 165.183C150.119 165.183 149.835 165.071 149.597 164.847C149.363 164.623 149.246 164.353 149.246 164.038C149.246 163.723 149.363 163.454 149.597 163.23C149.835 163.005 150.119 162.893 150.448 162.893C150.778 162.893 151.059 163.005 151.293 163.23C151.531 163.454 151.651 163.723 151.651 164.038C151.651 164.353 151.531 164.623 151.293 164.847C151.059 165.071 150.778 165.183 150.448 165.183ZM162.158 169.477L160.64 169.906C160.545 169.653 160.404 169.408 160.218 169.169C160.037 168.926 159.789 168.726 159.474 168.568C159.159 168.411 158.756 168.332 158.265 168.332C157.592 168.332 157.031 168.487 156.583 168.797C156.139 169.102 155.917 169.491 155.917 169.964C155.917 170.383 156.07 170.715 156.375 170.958C156.681 171.202 157.158 171.404 157.807 171.566L159.438 171.967C160.421 172.206 161.153 172.571 161.635 173.062C162.117 173.549 162.358 174.176 162.358 174.944C162.358 175.574 162.177 176.137 161.814 176.633C161.456 177.129 160.955 177.52 160.311 177.807C159.667 178.093 158.918 178.236 158.064 178.236C156.943 178.236 156.015 177.993 155.281 177.506C154.546 177.019 154.081 176.309 153.885 175.374L155.488 174.973C155.641 175.564 155.929 176.008 156.354 176.304C156.783 176.6 157.344 176.747 158.036 176.747C158.823 176.747 159.448 176.581 159.911 176.247C160.378 175.908 160.612 175.502 160.612 175.03C160.612 174.648 160.478 174.329 160.211 174.071C159.944 173.809 159.534 173.613 158.98 173.484L157.148 173.055C156.142 172.816 155.402 172.447 154.93 171.946C154.462 171.44 154.229 170.808 154.229 170.049C154.229 169.429 154.403 168.881 154.751 168.404C155.104 167.926 155.583 167.552 156.189 167.28C156.8 167.008 157.492 166.872 158.265 166.872C159.352 166.872 160.206 167.111 160.826 167.588C161.451 168.065 161.895 168.695 162.158 169.477ZM178.353 169.477L176.836 169.906C176.741 169.653 176.6 169.408 176.414 169.169C176.233 168.926 175.985 168.726 175.67 168.568C175.355 168.411 174.952 168.332 174.461 168.332C173.788 168.332 173.227 168.487 172.779 168.797C172.335 169.102 172.113 169.491 172.113 169.964C172.113 170.383 172.266 170.715 172.571 170.958C172.877 171.202 173.354 171.404 174.003 171.566L175.634 171.967C176.617 172.206 177.349 172.571 177.831 173.062C178.313 173.549 178.554 174.176 178.554 174.944C178.554 175.574 178.373 176.137 178.01 176.633C177.652 177.129 177.151 177.52 176.507 177.807C175.863 178.093 175.114 178.236 174.26 178.236C173.139 178.236 172.211 177.993 171.477 177.506C170.742 177.019 170.277 176.309 170.081 175.374L171.684 174.973C171.837 175.564 172.125 176.008 172.55 176.304C172.979 176.6 173.54 176.747 174.232 176.747C175.019 176.747 175.644 176.581 176.106 176.247C176.574 175.908 176.808 175.502 176.808 175.03C176.808 174.648 176.674 174.329 176.407 174.071C176.14 173.809 175.73 173.613 175.176 173.484L173.344 173.055C172.338 172.816 171.598 172.447 171.126 171.946C170.658 171.44 170.425 170.808 170.425 170.049C170.425 169.429 170.599 168.881 170.947 168.404C171.3 167.926 171.779 167.552 172.385 167.28C172.996 167.008 173.688 166.872 174.461 166.872C175.548 166.872 176.402 167.111 177.022 167.588C177.647 168.065 178.091 168.695 178.353 169.477ZM185.876 167.015V168.446H180.18V167.015H185.876ZM181.84 164.382H183.529V174.858C183.529 175.335 183.598 175.693 183.737 175.932C183.88 176.165 184.061 176.323 184.281 176.404C184.505 176.48 184.741 176.518 184.989 176.518C185.175 176.518 185.328 176.509 185.447 176.49C185.566 176.466 185.662 176.447 185.733 176.433L186.077 177.95C185.962 177.993 185.802 178.036 185.597 178.079C185.392 178.126 185.132 178.15 184.817 178.15C184.34 178.15 183.873 178.048 183.415 177.842C182.961 177.637 182.585 177.325 182.284 176.905C181.988 176.485 181.84 175.956 181.84 175.316V164.382ZM188.417 178.007V167.015H190.106V178.007H188.417ZM189.275 165.183C188.946 165.183 188.662 165.071 188.424 164.847C188.19 164.623 188.073 164.353 188.073 164.038C188.073 163.723 188.19 163.454 188.424 163.23C188.662 163.005 188.946 162.893 189.275 162.893C189.605 162.893 189.886 163.005 190.12 163.23C190.358 163.454 190.478 163.723 190.478 164.038C190.478 164.353 190.358 164.623 190.12 164.847C189.886 165.071 189.605 165.183 189.275 165.183ZM194.888 163.351V178.007H193.199V163.351H194.888ZM199.67 163.351V178.007H197.981V163.351H199.67ZM213.039 178.236C211.98 178.236 211.066 178.002 210.298 177.535C209.535 177.062 208.946 176.404 208.531 175.56C208.12 174.71 207.915 173.723 207.915 172.597C207.915 171.471 208.12 170.479 208.531 169.62C208.946 168.757 209.523 168.084 210.262 167.602C211.007 167.115 211.875 166.872 212.867 166.872C213.44 166.872 214.005 166.968 214.563 167.158C215.121 167.349 215.629 167.659 216.087 168.089C216.545 168.513 216.91 169.076 217.182 169.777C217.454 170.479 217.59 171.342 217.59 172.368V173.084H209.117V171.624H215.873C215.873 171.004 215.749 170.45 215.501 169.964C215.257 169.477 214.909 169.093 214.456 168.811C214.007 168.53 213.478 168.389 212.867 168.389C212.195 168.389 211.613 168.556 211.121 168.89C210.635 169.219 210.26 169.649 209.998 170.178C209.735 170.708 209.604 171.275 209.604 171.881V172.855C209.604 173.685 209.747 174.388 210.033 174.966C210.324 175.538 210.728 175.975 211.243 176.275C211.758 176.571 212.357 176.719 213.039 176.719C213.483 176.719 213.883 176.657 214.241 176.533C214.604 176.404 214.916 176.213 215.179 175.96C215.441 175.703 215.644 175.383 215.787 175.001L217.418 175.459C217.247 176.013 216.958 176.499 216.553 176.919C216.147 177.334 215.646 177.659 215.05 177.892C214.453 178.121 213.783 178.236 213.039 178.236ZM220.159 178.007V167.015H221.791V168.733H221.934C222.163 168.146 222.533 167.69 223.043 167.366C223.554 167.037 224.167 166.872 224.882 166.872C225.607 166.872 226.211 167.037 226.693 167.366C227.179 167.69 227.559 168.146 227.831 168.733H227.945C228.227 168.165 228.649 167.714 229.212 167.38C229.775 167.041 230.45 166.872 231.237 166.872C232.22 166.872 233.023 167.18 233.648 167.795C234.273 168.406 234.586 169.358 234.586 170.651V178.007H232.897V170.651C232.897 169.84 232.675 169.26 232.232 168.912C231.788 168.563 231.265 168.389 230.664 168.389C229.891 168.389 229.293 168.623 228.868 169.09C228.444 169.553 228.231 170.14 228.231 170.851V178.007H226.514V170.479C226.514 169.854 226.311 169.351 225.906 168.969C225.5 168.582 224.978 168.389 224.338 168.389C223.899 168.389 223.489 168.506 223.108 168.74C222.731 168.974 222.425 169.298 222.192 169.713C221.963 170.123 221.848 170.598 221.848 171.137V178.007H220.159ZM237.674 182.129V167.015H239.305V168.761H239.506C239.63 168.57 239.801 168.327 240.021 168.031C240.245 167.731 240.565 167.464 240.98 167.23C241.4 166.991 241.967 166.872 242.683 166.872C243.608 166.872 244.424 167.103 245.13 167.566C245.836 168.029 246.387 168.685 246.783 169.534C247.179 170.383 247.377 171.385 247.377 172.54C247.377 173.704 247.179 174.713 246.783 175.567C246.387 176.416 245.839 177.074 245.137 177.542C244.436 178.005 243.628 178.236 242.712 178.236C242.006 178.236 241.44 178.119 241.016 177.885C240.591 177.647 240.264 177.377 240.035 177.077C239.806 176.771 239.63 176.518 239.506 176.318H239.363V182.129H237.674ZM239.334 172.511C239.334 173.341 239.456 174.074 239.699 174.708C239.942 175.338 240.298 175.832 240.765 176.189C241.233 176.542 241.805 176.719 242.483 176.719C243.189 176.719 243.778 176.533 244.25 176.161C244.727 175.784 245.085 175.278 245.324 174.644C245.567 174.004 245.688 173.293 245.688 172.511C245.688 171.738 245.569 171.042 245.331 170.422C245.097 169.797 244.742 169.303 244.264 168.94C243.792 168.573 243.198 168.389 242.483 168.389C241.796 168.389 241.218 168.563 240.751 168.912C240.283 169.255 239.93 169.737 239.692 170.357C239.453 170.973 239.334 171.691 239.334 172.511ZM254.734 167.015V168.446H249.038V167.015H254.734ZM250.698 164.382H252.387V174.858C252.387 175.335 252.456 175.693 252.594 175.932C252.737 176.165 252.919 176.323 253.138 176.404C253.362 176.48 253.598 176.518 253.846 176.518C254.032 176.518 254.185 176.509 254.304 176.49C254.424 176.466 254.519 176.447 254.591 176.433L254.934 177.95C254.82 177.993 254.66 178.036 254.455 178.079C254.25 178.126 253.99 178.15 253.675 178.15C253.198 178.15 252.73 178.048 252.272 177.842C251.819 177.637 251.442 177.325 251.141 176.905C250.846 176.485 250.698 175.956 250.698 175.316V164.382ZM258.362 182.129C258.076 182.129 257.82 182.105 257.596 182.057C257.372 182.014 257.217 181.971 257.131 181.928L257.56 180.44C257.971 180.545 258.333 180.583 258.648 180.555C258.963 180.526 259.242 180.385 259.485 180.132C259.733 179.884 259.96 179.481 260.165 178.923L260.48 178.064L256.415 167.015H258.247L261.282 175.774H261.396L264.43 167.015H266.262L261.596 179.61C261.387 180.178 261.127 180.648 260.816 181.02C260.506 181.397 260.146 181.676 259.736 181.857C259.33 182.038 258.872 182.129 258.362 182.129Z" fill="black"/>
<circle cx="163.167" cy="107.809" r="36.5506" fill="#FC636B"/>
<path d="M164.794 125.542H156.225C154.838 125.542 153.496 125.046 152.443 124.142C151.391 123.239 150.696 121.989 150.485 120.617L148.055 104.836C147.971 104.284 148.006 103.72 148.159 103.183C148.313 102.647 148.58 102.149 148.944 101.726C149.307 101.302 149.758 100.962 150.266 100.729C150.773 100.496 151.324 100.375 151.883 100.375H173.834C174.393 100.375 174.944 100.496 175.452 100.729C175.959 100.962 176.41 101.302 176.773 101.726C177.137 102.149 177.404 102.647 177.558 103.183C177.711 103.72 177.747 104.284 177.662 104.836L176.682 111.199" stroke="white" stroke-width="3.87189" stroke-linecap="round" stroke-linejoin="round"/>
<path d="M157.05 106.183V96.5033C157.05 94.963 157.662 93.4857 158.751 92.3966C159.84 91.3074 161.317 90.6955 162.858 90.6955C164.398 90.6955 165.875 91.3074 166.964 92.3966C168.054 93.4857 168.665 94.963 168.665 96.5033V106.183M182.217 127.478L172.537 117.799M172.537 127.478L182.217 117.799" stroke="white" stroke-width="3.87189" stroke-linecap="round" stroke-linejoin="round"/>
</svg>
